<svg xmlns="http://www.w3.org/2000/svg" viewBox="0 0 800 400" width="800" height="400">
  <defs>
    <linearGradient id="archbg" x1="0%" y1="0%" x2="100%" y2="100%">
      <stop offset="0%" style="stop-color:#1a1a2e"/>
      <stop offset="100%" style="stop-color:#16213e"/>
    </linearGradient>
    <marker id="arrowhead" markerWidth="8" markerHeight="6" refX="8" refY="3" orient="auto">
      <polygon points="0 0, 8 3, 0 6" fill="#8892b0"/>
    </marker>
  </defs>
  <rect width="800" height="400" fill="url(#archbg)" rx="12"/>
  <text x="400" y="30" text-anchor="middle" font-family="Segoe UI,Helvetica,Arial,sans-serif" font-size="16" font-weight="700" fill="#fb8500">System Architecture</text>
  <g transform="translate(0,20)">
  <path d="M180,130 C205.0,130 205.0,160 230,160" fill="none" stroke="#8892b0" stroke-width="1.5" stroke-dasharray="4,3" marker-end="url(#arrowhead)"/>
  <path d="M180,250 C205.0,250 205.0,190 230,190" fill="none" stroke="#8892b0" stroke-width="1.5" stroke-dasharray="4,3" marker-end="url(#arrowhead)"/>
  <path d="M390,175 C415.0,175 415.0,175 440,175" fill="none" stroke="#8892b0" stroke-width="1.5" stroke-dasharray="4,3" marker-end="url(#arrowhead)"/>
  <path d="M600,175 C625.0,175 625.0,70 650,70" fill="none" stroke="#8892b0" stroke-width="1.5" stroke-dasharray="4,3" marker-end="url(#arrowhead)"/>
  <path d="M600,175 C625.0,175 625.0,190 650,190" fill="none" stroke="#8892b0" stroke-width="1.5" stroke-dasharray="4,3" marker-end="url(#arrowhead)"/>
  <path d="M600,175 C625.0,175 625.0,310 650,310" fill="none" stroke="#8892b0" stroke-width="1.5" stroke-dasharray="4,3" marker-end="url(#arrowhead)"/>

  <rect x="40" y="100" width="140" height="60" rx="8" fill="#fb8500" opacity="0.15" stroke="#fb8500" stroke-width="1.5"/>
  <text x="110" y="124" text-anchor="middle" font-family="Segoe UI,Helvetica,Arial,sans-serif" font-size="11" font-weight="600" fill="#fb8500">Genre + Premise</text>
  <text x="110" y="140" text-anchor="middle" font-family="Segoe UI,Helvetica,Arial,sans-serif" font-size="9" fill="#8892b0">(User Input)</text>
  <rect x="40" y="220" width="140" height="60" rx="8" fill="#ffb703" opacity="0.15" stroke="#ffb703" stroke-width="1.5"/>
  <text x="110" y="244" text-anchor="middle" font-family="Segoe UI,Helvetica,Arial,sans-serif" font-size="11" font-weight="600" fill="#ffb703">Plot Structure</text>
  <text x="110" y="260" text-anchor="middle" font-family="Segoe UI,Helvetica,Arial,sans-serif" font-size="9" fill="#8892b0">(4 frameworks)</text>
  <rect x="230" y="140" width="160" height="70" rx="8" fill="#ffd166" opacity="0.15" stroke="#ffd166" stroke-width="1.5"/>
  <text x="310" y="169" text-anchor="middle" font-family="Segoe UI,Helvetica,Arial,sans-serif" font-size="11" font-weight="600" fill="#ffd166">build_prompt()</text>
  <text x="310" y="185" text-anchor="middle" font-family="Segoe UI,Helvetica,Arial,sans-serif" font-size="9" fill="#8892b0">Narrative Engine</text>
  <rect x="440" y="140" width="160" height="70" rx="8" fill="#ef476f" opacity="0.15" stroke="#ef476f" stroke-width="1.5"/>
  <text x="520" y="169" text-anchor="middle" font-family="Segoe UI,Helvetica,Arial,sans-serif" font-size="11" font-weight="600" fill="#ef476f">Ollama LLM</text>
  <text x="520" y="185" text-anchor="middle" font-family="Segoe UI,Helvetica,Arial,sans-serif" font-size="9" fill="#8892b0">generate_outline()</text>
  <rect x="650" y="40" width="130" height="60" rx="8" fill="#fb8500" opacity="0.15" stroke="#fb8500" stroke-width="1.5"/>
  <text x="715" y="64" text-anchor="middle" font-family="Segoe UI,Helvetica,Arial,sans-serif" font-size="11" font-weight="600" fill="#fb8500">Story Outline</text>
  <text x="715" y="80" text-anchor="middle" font-family="Segoe UI,Helvetica,Arial,sans-serif" font-size="9" fill="#8892b0">(Chapters+Arcs)</text>
  <rect x="650" y="160" width="130" height="60" rx="8" fill="#8338ec" opacity="0.15" stroke="#8338ec" stroke-width="1.5"/>
  <text x="715" y="184" text-anchor="middle" font-family="Segoe UI,Helvetica,Arial,sans-serif" font-size="11" font-weight="600" fill="#8338ec">Character Profiles</text>
  <text x="715" y="200" text-anchor="middle" font-family="Segoe UI,Helvetica,Arial,sans-serif" font-size="9" fill="#8892b0">generate_character()</text>
  <rect x="650" y="280" width="130" height="60" rx="8" fill="#3a86a7" opacity="0.15" stroke="#3a86a7" stroke-width="1.5"/>
  <text x="715" y="304" text-anchor="middle" font-family="Segoe UI,Helvetica,Arial,sans-serif" font-size="11" font-weight="600" fill="#3a86a7">Plot Visualization</text>
  <text x="715" y="320" text-anchor="middle" font-family="Segoe UI,Helvetica,Arial,sans-serif" font-size="9" fill="#8892b0">visualize_plot_arc()</text>
  </g>
</svg>