<svg xmlns="http://www.w3.org/2000/svg" viewBox="0 0 800 400" width="800" height="400">
  <defs>
    <linearGradient id="archbg" x1="0%" y1="0%" x2="100%" y2="100%">
      <stop offset="0%" style="stop-color:#1a1a2e"/>
      <stop offset="100%" style="stop-color:#16213e"/>
    </linearGradient>
    <marker id="arrowhead" markerWidth="8" markerHeight="6" refX="8" refY="3" orient="auto">
      <polygon points="0 0, 8 3, 0 6" fill="#8892b0"/>
    </marker>
  </defs>
  <rect width="800" height="400" fill="url(#archbg)" rx="12"/>
  <text x="400" y="30" text-anchor="middle" font-family="Segoe UI,Helvetica,Arial,sans-serif" font-size="16" font-weight="700" fill="#e63946">System Architecture</text>
  <g transform="translate(0,20)">
  <path d="M180,110 C210.0,110 210.0,180 240,180" fill="none" stroke="#8892b0" stroke-width="1.5" stroke-dasharray="4,3" marker-end="url(#arrowhead)"/>
  <path d="M180,230 C210.0,230 210.0,200 240,200" fill="none" stroke="#8892b0" stroke-width="1.5" stroke-dasharray="4,3" marker-end="url(#arrowhead)"/>
  <path d="M180,350 C210.0,350 210.0,220 240,220" fill="none" stroke="#8892b0" stroke-width="1.5" stroke-dasharray="4,3" marker-end="url(#arrowhead)"/>
  <path d="M400,195 C425.0,195 425.0,195 450,195" fill="none" stroke="#8892b0" stroke-width="1.5" stroke-dasharray="4,3" marker-end="url(#arrowhead)"/>
  <path d="M610,195 C635.0,195 635.0,90 660,90" fill="none" stroke="#8892b0" stroke-width="1.5" stroke-dasharray="4,3" marker-end="url(#arrowhead)"/>
  <path d="M610,195 C635.0,195 635.0,210 660,210" fill="none" stroke="#8892b0" stroke-width="1.5" stroke-dasharray="4,3" marker-end="url(#arrowhead)"/>
  <path d="M610,195 C635.0,195 635.0,330 660,330" fill="none" stroke="#8892b0" stroke-width="1.5" stroke-dasharray="4,3" marker-end="url(#arrowhead)"/>

  <rect x="40" y="80" width="140" height="60" rx="8" fill="#e63946" opacity="0.15" stroke="#e63946" stroke-width="1.5"/>
  <text x="110" y="104" text-anchor="middle" font-family="Segoe UI,Helvetica,Arial,sans-serif" font-size="11" font-weight="600" fill="#e63946">Product Info</text>
  <text x="110" y="120" text-anchor="middle" font-family="Segoe UI,Helvetica,Arial,sans-serif" font-size="9" fill="#8892b0">(Name+Features)</text>
  <rect x="40" y="200" width="140" height="60" rx="8" fill="#ff6b6b" opacity="0.15" stroke="#ff6b6b" stroke-width="1.5"/>
  <text x="110" y="224" text-anchor="middle" font-family="Segoe UI,Helvetica,Arial,sans-serif" font-size="11" font-weight="600" fill="#ff6b6b">SEO Keywords</text>
  <text x="110" y="240" text-anchor="middle" font-family="Segoe UI,Helvetica,Arial,sans-serif" font-size="9" fill="#8892b0">(User Input)</text>
  <rect x="40" y="320" width="140" height="60" rx="8" fill="#c44536" opacity="0.15" stroke="#c44536" stroke-width="1.5"/>
  <text x="110" y="344" text-anchor="middle" font-family="Segoe UI,Helvetica,Arial,sans-serif" font-size="11" font-weight="600" fill="#c44536">Platform Config</text>
  <text x="110" y="360" text-anchor="middle" font-family="Segoe UI,Helvetica,Arial,sans-serif" font-size="9" fill="#8892b0">(5 platforms)</text>
  <rect x="240" y="160" width="160" height="70" rx="8" fill="#ffd166" opacity="0.15" stroke="#ffd166" stroke-width="1.5"/>
  <text x="320" y="189" text-anchor="middle" font-family="Segoe UI,Helvetica,Arial,sans-serif" font-size="11" font-weight="600" fill="#ffd166">build_prompt()</text>
  <text x="320" y="205" text-anchor="middle" font-family="Segoe UI,Helvetica,Arial,sans-serif" font-size="9" fill="#8892b0">Copy Engine</text>
  <rect x="450" y="160" width="160" height="70" rx="8" fill="#ef476f" opacity="0.15" stroke="#ef476f" stroke-width="1.5"/>
  <text x="530" y="189" text-anchor="middle" font-family="Segoe UI,Helvetica,Arial,sans-serif" font-size="11" font-weight="600" fill="#ef476f">Ollama LLM</text>
  <text x="530" y="205" text-anchor="middle" font-family="Segoe UI,Helvetica,Arial,sans-serif" font-size="9" fill="#8892b0">generate_descriptions()</text>
  <rect x="660" y="60" width="130" height="60" rx="8" fill="#e63946" opacity="0.15" stroke="#e63946" stroke-width="1.5"/>
  <text x="725" y="84" text-anchor="middle" font-family="Segoe UI,Helvetica,Arial,sans-serif" font-size="11" font-weight="600" fill="#e63946">Descriptions</text>
  <text x="725" y="100" text-anchor="middle" font-family="Segoe UI,Helvetica,Arial,sans-serif" font-size="9" fill="#8892b0">(Multi-variant)</text>
  <rect x="660" y="180" width="130" height="60" rx="8" fill="#2a9d8f" opacity="0.15" stroke="#2a9d8f" stroke-width="1.5"/>
  <text x="725" y="204" text-anchor="middle" font-family="Segoe UI,Helvetica,Arial,sans-serif" font-size="11" font-weight="600" fill="#2a9d8f">SEO Score</text>
  <text x="725" y="220" text-anchor="middle" font-family="Segoe UI,Helvetica,Arial,sans-serif" font-size="9" fill="#8892b0">calculate_seo_score()</text>
  <rect x="660" y="300" width="130" height="60" rx="8" fill="#e76f51" opacity="0.15" stroke="#e76f51" stroke-width="1.5"/>
  <text x="725" y="324" text-anchor="middle" font-family="Segoe UI,Helvetica,Arial,sans-serif" font-size="11" font-weight="600" fill="#e76f51">A/B Variants</text>
  <text x="725" y="340" text-anchor="middle" font-family="Segoe UI,Helvetica,Arial,sans-serif" font-size="9" fill="#8892b0">generate_ab_variants()</text>
  </g>
</svg>